<?xml version="1.0" standalone="no"?>
<!DOCTYPE svg PUBLIC "-//W3C//DTD SVG 20010904//EN"
 "http://www.w3.org/TR/2001/REC-SVG-20010904/DTD/svg10.dtd">
<svg version="1.0" xmlns="http://www.w3.org/2000/svg"
 width="1833.000000pt" height="1833.000000pt" viewBox="0 0 1833.000000 1833.000000"
 preserveAspectRatio="xMidYMid meet">
<metadata>
Created by potrace 1.14, written by Peter Selinger 2001-2017
</metadata>
<g transform="translate(0.000000,1833.000000) scale(0.100000,-0.100000)"
fill="#000000" stroke="none">
<path d="M10455 17220 c-27 -5 -88 -19 -134 -31 -77 -21 -113 -41 -420 -237
-185 -117 -416 -270 -514 -339 -257 -180 -385 -233 -564 -233 -140 0 -235 30
-454 143 -145 74 -213 97 -291 97 -58 0 -204 -51 -353 -124 -139 -69 -234
-132 -323 -218 -51 -49 -355 -405 -428 -502 -40 -51 -302 -555 -391 -748 -306
-668 -947 -2266 -1083 -2698 -28 -91 -69 -211 -91 -268 -42 -110 -54 -174 -94
-492 -62 -490 -93 -655 -337 -1765 l-161 -730 -6 -840 c-5 -655 -4 -848 5
-877 7 -20 31 -133 54 -250 57 -299 57 -297 117 -463 33 -91 80 -256 119 -420
259 -1076 324 -1323 446 -1695 74 -228 115 -330 235 -595 248 -547 319 -668
575 -976 288 -347 629 -666 1030 -965 76 -56 272 -192 436 -302 l298 -200 225
-77 c510 -175 686 -225 915 -264 144 -25 384 -43 468 -36 34 3 160 12 281 20
121 9 243 20 270 26 109 24 740 241 907 312 549 236 1009 517 1424 874 155
132 510 492 652 660 469 558 738 1079 856 1658 26 127 82 552 115 870 80 764
93 1617 36 2300 -20 238 -47 449 -95 735 -21 129 -53 325 -70 435 -60 385
-129 664 -244 986 -207 582 -788 2021 -903 2239 -30 58 -99 191 -153 295 l-98
190 -86 317 c-47 174 -86 324 -86 333 0 10 -12 50 -26 89 -14 39 -83 305 -154
591 -138 559 -217 857 -310 1165 -119 392 -320 961 -390 1100 -66 130 -310
419 -605 715 -98 98 -163 139 -280 175 -79 24 -240 34 -320 20z m259 -95 c76
-20 184 -77 241 -127 24 -22 72 -77 104 -122 35 -48 90 -108 131 -141 162
-132 317 -327 428 -535 165 -309 286 -716 701 -2345 77 -302 181 -711 231
-908 l91 -357 170 -328 c233 -450 276 -551 676 -1597 310 -810 508 -1471 573
-1910 11 -78 25 -246 31 -380 5 -132 20 -364 31 -515 33 -430 32 -1331 -2
-1980 -58 -1110 -221 -1669 -688 -2350 -522 -760 -1044 -1267 -1657 -1611
-222 -124 -813 -400 -1025 -479 -96 -35 -417 -116 -495 -125 -33 -3 -143 -20
-245 -37 -323 -55 -566 -42 -888 49 -70 19 -138 38 -152 41 -13 3 -209 85
-434 183 -386 168 -428 189 -765 381 -256 146 -407 239 -536 332 -295 211
-333 243 -486 395 -151 151 -262 290 -359 451 -30 50 -87 133 -127 185 -273
356 -436 679 -602 1195 -22 69 -115 441 -206 828 -133 561 -183 755 -250 965
-46 144 -93 305 -104 357 -12 52 -30 124 -41 160 -17 59 -50 224 -101 515 -27
148 -38 483 -39 1123 0 446 2 517 16 543 21 41 222 1109 309 1644 20 121 74
471 120 777 l84 557 82 248 c45 137 149 446 231 688 137 403 160 462 273 700
443 933 535 1139 580 1300 19 66 41 139 49 163 26 73 192 392 263 505 143 227
348 477 521 635 80 72 117 97 304 197 272 146 279 147 413 113 57 -14 187 -58
289 -96 254 -96 335 -116 456 -110 185 10 336 84 556 273 198 171 331 262 549
376 129 68 329 155 400 174 69 19 227 19 299 0z"/>
<path d="M9671 13884 c-27 -34 -27 -88 -1 -114 35 -35 74 -19 91 39 24 79 -43
135 -90 75z"/>
<path d="M8878 13870 c-9 -6 -24 -30 -33 -55 -20 -52 -14 -104 15 -130 43 -39
110 20 110 98 0 76 -42 116 -92 87z"/>
<path d="M9138 13684 c-57 -30 -77 -128 -39 -190 69 -114 218 36 156 156 -26
50 -67 62 -117 34z"/>
<path d="M8552 13531 c-100 -73 -182 -258 -182 -412 0 -143 57 -202 149 -155
69 36 154 171 186 297 19 72 22 190 6 231 -28 73 -90 88 -159 39z"/>
<path d="M8831 13534 c-42 -53 -17 -144 39 -144 35 0 70 44 70 87 0 79 -65
112 -109 57z"/>
<path d="M9403 13505 c-12 -8 -27 -31 -33 -50 -29 -88 51 -152 111 -89 34 36
34 108 0 135 -28 23 -49 24 -78 4z"/>
<path d="M9701 13409 c-44 -47 -33 -164 19 -214 55 -53 115 -7 114 88 -2 110
-79 184 -133 126z"/>
<path d="M9145 13328 c-97 -53 -154 -202 -110 -287 16 -32 33 -41 77 -41 46 0
121 79 142 149 20 67 20 92 2 136 -21 50 -66 68 -111 43z"/>
<path d="M8210 13241 c-23 -45 -7 -101 30 -101 40 0 67 79 38 108 -18 18 -56
14 -68 -7z"/>
<path d="M9458 13225 c-86 -47 -91 -270 -7 -329 49 -34 98 -16 130 46 45 88
33 206 -26 265 -36 36 -56 40 -97 18z"/>
<path d="M8811 13114 c-39 -50 -18 -144 33 -144 46 0 81 73 62 130 -9 29 -16
36 -42 38 -25 2 -37 -3 -53 -24z"/>
<path d="M10000 12895 c-61 -65 7 -215 98 -215 29 0 70 37 77 69 24 110 -106
219 -175 146z"/>
<path d="M8577 12890 c-15 -12 -31 -37 -36 -57 -28 -99 57 -173 122 -107 85
85 5 236 -86 164z"/>
<path d="M9229 12832 c-23 -12 -43 -34 -62 -72 -25 -49 -28 -64 -25 -132 4
-89 26 -131 73 -136 73 -9 127 69 133 192 3 72 1 85 -20 115 -31 45 -57 54
-99 33z"/>
<path d="M8105 12815 c-30 -30 -32 -64 -4 -99 43 -55 129 -23 129 49 0 70 -76
100 -125 50z"/>
<path d="M8905 12757 c-18 -15 -28 -36 -32 -64 -5 -35 -2 -45 20 -67 33 -33
64 -24 90 25 21 41 16 87 -14 112 -27 22 -33 22 -64 -6z"/>
<path d="M8550 12587 c-56 -18 -153 -122 -174 -185 -57 -171 102 -224 241 -80
137 141 93 318 -67 265z"/>
<path d="M9608 12503 c-53 -56 -60 -152 -17 -207 25 -32 48 -33 84 -4 55 43
72 144 35 206 -26 42 -65 44 -102 5z"/>
<path d="M9043 12433 c-31 -43 -43 -90 -43 -160 0 -54 4 -68 24 -88 35 -35 64
-22 99 45 30 60 37 154 14 200 -19 38 -69 40 -94 3z"/>
<path d="M9293 12439 c-29 -10 -43 -39 -43 -86 0 -46 14 -63 51 -63 35 0 59
32 59 78 0 59 -25 87 -67 71z"/>
<path d="M10142 12330 c-69 -42 -105 -195 -68 -285 28 -67 87 -74 139 -16 41
46 57 93 57 174 0 63 -17 107 -52 131 -29 20 -36 20 -76 -4z"/>
<path d="M8004 12225 c-65 -67 -100 -192 -73 -262 45 -118 198 31 202 196 3
116 -54 145 -129 66z"/>
<path d="M8739 12188 c-52 -35 -99 -135 -99 -210 0 -107 47 -151 119 -112 102
55 154 267 80 327 -29 23 -59 22 -100 -5z"/>
<path d="M10642 12184 c-55 -38 -75 -158 -36 -211 60 -80 151 3 142 128 -6 88
-50 123 -106 83z"/>
<path d="M9326 11980 c-60 -53 -81 -152 -50 -230 18 -43 39 -60 76 -60 104 0
159 231 71 299 -35 28 -56 26 -97 -9z"/>
<path d="M9041 11974 c-42 -54 -39 -152 5 -181 24 -15 27 -15 52 4 15 11 33
31 39 44 18 34 16 110 -3 137 -22 31 -67 29 -93 -4z"/>
<path d="M8297 11859 c-23 -13 -47 -62 -47 -94 0 -43 27 -85 54 -85 38 0 56
10 71 41 21 40 19 92 -6 123 -22 27 -43 32 -72 15z"/>
<path d="M7984 11735 c-78 -83 -49 -235 46 -235 97 0 145 166 70 242 -39 39
-74 37 -116 -7z"/>
<path d="M9985 11738 c-84 -66 -85 -230 -1 -230 59 0 125 104 113 178 -12 71
-60 93 -112 52z"/>
<path d="M8484 11666 c-28 -28 -34 -41 -34 -78 0 -50 18 -82 60 -103 82 -42
170 15 170 111 0 28 -8 44 -34 70 -29 29 -41 34 -81 34 -40 0 -52 -5 -81 -34z"/>
<path d="M8238 11540 c-22 -13 -41 -74 -33 -102 4 -13 14 -31 23 -40 38 -44
105 1 105 72 0 65 -46 98 -95 70z"/>
<path d="M9586 11479 c-50 -59 -28 -179 33 -179 26 0 69 53 77 95 18 98 -53
152 -110 84z"/>
<path d="M9007 11470 c-57 -45 -70 -147 -26 -204 36 -46 86 -30 120 36 30 58
23 132 -15 165 -33 28 -46 29 -79 3z"/>
<path d="M9322 11294 c-68 -47 -70 -198 -3 -234 75 -39 151 26 151 130 0 97
-79 152 -148 104z"/>
<path d="M7956 11289 c-66 -18 -118 -109 -97 -172 19 -55 54 -82 111 -82 86 0
135 72 111 162 -12 42 -49 88 -79 95 -9 3 -30 1 -46 -3z"/>
<path d="M8383 11268 c-48 -23 -66 -116 -41 -201 18 -59 86 -127 127 -127 68
0 104 82 81 183 -31 130 -90 182 -167 145z"/>
<path d="M8717 11263 c-40 -11 -60 -99 -31 -141 15 -22 57 -30 80 -14 40 26
45 102 9 137 -25 25 -27 26 -58 18z"/>
<path d="M10102 11173 c-23 -9 -44 -64 -38 -96 20 -97 126 -81 126 19 0 65
-37 98 -88 77z"/>
<path d="M8970 11068 c-84 -43 -132 -167 -100 -262 15 -47 65 -96 96 -96 63 0
164 87 184 159 28 103 -20 200 -107 217 -18 3 -43 -3 -73 -18z"/>
<path d="M8644 10972 c-22 -14 -36 -55 -30 -85 19 -95 116 -86 116 10 0 57
-49 100 -86 75z"/>
<path d="M9589 10931 c-33 -33 -37 -67 -14 -111 19 -36 64 -41 95 -10 29 29
28 99 -3 128 -31 29 -43 28 -78 -7z"/>
<path d="M8131 10769 c-67 -63 -47 -189 30 -189 37 0 76 39 85 86 17 93 -55
158 -115 103z"/>
<path d="M9876 10759 c-82 -65 -99 -244 -29 -314 45 -45 96 -27 135 48 18 33
23 59 23 122 0 88 -18 134 -62 154 -32 15 -36 14 -67 -10z"/>
<path d="M7767 10679 c-22 -13 -47 -61 -47 -92 0 -37 36 -77 70 -77 43 0 70
34 70 90 0 74 -41 109 -93 79z"/>
<path d="M8563 10660 c-74 -45 -143 -185 -143 -291 0 -104 45 -159 130 -159
113 0 183 106 182 276 0 162 -70 235 -169 174z"/>
<path d="M8907 10609 c-28 -17 -50 -68 -43 -107 17 -109 136 -89 136 23 0 70
-45 112 -93 84z"/>
<path d="M9231 10544 c-35 -29 -56 -90 -46 -134 18 -83 99 -109 149 -49 32 38
40 68 33 122 -7 48 -43 87 -82 87 -13 0 -37 -12 -54 -26z"/>
<path d="M8132 10438 c-87 -93 -22 -251 75 -183 45 31 54 126 18 181 -20 31
-64 32 -93 2z"/>
<path d="M10693 10445 c-46 -32 -47 -123 -4 -220 63 -142 216 -279 313 -279
184 -1 38 386 -185 490 -60 28 -94 30 -124 9z"/>
<path d="M7785 10412 c-143 -88 -205 -342 -103 -427 28 -24 39 -27 84 -23 111
9 175 102 182 264 3 55 0 106 -8 128 -23 70 -92 96 -155 58z"/>
<path d="M8750 10272 c-66 -67 -43 -187 33 -168 68 17 114 95 86 147 -29 56
-76 64 -119 21z"/>
<path d="M10439 10241 c-20 -16 -24 -28 -23 -78 1 -96 60 -183 125 -183 89 0
68 202 -27 260 -39 25 -46 25 -75 1z"/>
<path d="M9673 10234 c-122 -60 -56 -337 93 -389 70 -24 123 8 145 87 28 104
-49 263 -148 304 -41 18 -51 17 -90 -2z"/>
<path d="M8215 10054 c-40 -20 -66 -57 -72 -103 -13 -94 104 -95 152 -1 21 40
19 76 -5 100 -24 24 -35 24 -75 4z"/>
<path d="M9195 9905 c-46 -46 -25 -150 35 -175 67 -28 121 52 90 134 -24 65
-82 85 -125 41z"/>
<path d="M8643 9899 c-52 -19 -70 -110 -35 -178 34 -68 68 -67 109 5 52 90 4
202 -74 173z"/>
<path d="M7864 9848 c-116 -102 -57 -258 67 -175 37 24 79 97 79 137 0 75 -80
96 -146 38z"/>
<path d="M10762 9808 c-28 -28 -4 -119 44 -163 33 -31 68 -32 88 -3 20 29 20
97 0 126 -30 44 -106 66 -132 40z"/>
<path d="M8368 9710 c-55 -42 -93 -178 -77 -267 12 -61 33 -83 80 -83 70 0
136 82 146 184 14 135 -70 229 -149 166z"/>
<path d="M7535 9682 c-102 -63 -205 -238 -205 -346 0 -53 21 -108 51 -139 26
-26 35 -29 73 -25 55 7 96 37 156 117 58 77 90 168 90 252 0 72 -19 118 -59
142 -37 22 -69 21 -106 -1z"/>
<path d="M8837 9642 c-26 -28 -21 -67 14 -107 56 -63 114 -42 114 42 0 35 -5
49 -24 64 -30 24 -83 25 -104 1z"/>
<path d="M10030 9588 c-56 -29 -79 -148 -41 -218 23 -45 75 -80 116 -80 88 0
132 152 71 245 -33 51 -102 75 -146 53z"/>
<path d="M8050 9538 c-22 -37 -25 -60 -10 -89 25 -46 90 -7 90 54 0 69 -47 90
-80 35z"/>
<path d="M9142 9503 c-7 -3 -19 -18 -28 -35 -37 -71 31 -180 101 -162 27 7 55
49 55 84 0 71 -73 135 -128 113z"/>
<path d="M9540 9467 c-87 -44 -57 -217 41 -242 38 -9 88 37 96 88 8 53 -21
123 -61 148 -36 22 -43 23 -76 6z"/>
<path d="M7726 9318 c-100 -100 -54 -306 52 -232 57 39 87 162 55 224 -26 50
-63 52 -107 8z"/>
<path d="M8646 9250 c-62 -55 -68 -138 -13 -175 29 -19 67 -8 91 27 19 27 21
112 3 148 -18 36 -40 36 -81 0z"/>
<path d="M8044 9201 c-87 -53 -98 -229 -19 -308 67 -67 136 -27 170 100 29
107 7 185 -60 213 -44 18 -54 18 -91 -5z"/>
<path d="M8370 9082 c-16 -16 -31 -45 -35 -64 -13 -70 33 -168 79 -168 44 0
86 74 86 150 0 44 -5 56 -29 81 -37 37 -65 37 -101 1z"/>
<path d="M10302 9067 c-66 -71 -56 -177 18 -177 44 0 74 42 74 103 0 29 -6 62
-12 75 -16 29 -52 29 -80 -1z"/>
<path d="M8977 9052 c-38 -42 -5 -131 58 -158 60 -25 85 0 85 86 0 41 -4 52
-26 69 -34 27 -95 28 -117 3z"/>
<path d="M9763 9004 c-23 -23 -25 -31 -21 -88 12 -140 96 -205 155 -118 28 43
38 110 23 156 -24 74 -106 100 -157 50z"/>
<path d="M11290 8991 c-95 -50 -147 -200 -91 -264 35 -41 152 8 184 76 29 60
20 152 -18 190 -21 22 -32 21 -75 -2z"/>
<path d="M10692 8903 c-95 -96 -99 -243 -6 -243 100 0 178 106 155 211 -21 93
-76 105 -149 32z"/>
<path d="M8570 8870 c-17 -17 -21 -29 -16 -54 7 -35 57 -86 86 -86 25 0 50 37
50 76 0 67 -77 107 -120 64z"/>
<path d="M7232 8810 c-40 -40 -55 -89 -50 -166 6 -100 64 -158 101 -101 25 39
57 156 57 212 0 87 -51 113 -108 55z"/>
<path d="M7691 8827 c-44 -22 -66 -82 -65 -177 1 -95 15 -138 66 -196 45 -50
89 -68 134 -54 19 7 39 20 44 30 25 47 0 236 -43 319 -35 68 -91 101 -136 78z"/>
<path d="M9348 8826 c-58 -28 -87 -176 -50 -259 38 -86 129 -114 182 -57 58
62 79 195 40 250 -39 55 -126 88 -172 66z"/>
<path d="M8838 8640 c-69 -54 -109 -279 -78 -441 13 -69 41 -99 93 -99 34 0
46 6 78 40 57 60 83 154 76 274 -7 114 -22 160 -68 208 -40 43 -65 47 -101 18z"/>
<path d="M8182 8627 c-51 -55 -33 -146 43 -216 50 -46 73 -51 101 -20 16 17
19 37 19 106 l0 85 -37 34 c-46 42 -93 46 -126 11z"/>
<path d="M10265 8602 c-68 -42 -109 -183 -69 -240 49 -71 167 45 168 166 1 45
-3 57 -23 73 -29 24 -38 24 -76 1z"/>
<path d="M7961 8429 c-89 -35 -54 -178 53 -219 16 -6 37 -8 47 -5 48 16 67
139 29 188 -12 15 -38 31 -58 37 -43 12 -40 12 -71 -1z"/>
<path d="M9854 8406 c-59 -26 -94 -103 -94 -204 0 -130 77 -154 180 -54 78 76
86 163 22 232 -33 36 -67 44 -108 26z"/>
<path d="M9515 8360 c-22 -25 -14 -63 22 -96 46 -43 83 -23 83 45 0 60 -67 93
-105 51z"/>
<path d="M10755 8306 c-64 -28 -106 -109 -90 -173 24 -101 107 -97 161 8 55
109 14 202 -71 165z"/>
<path d="M7415 8270 c-39 -44 -6 -168 62 -232 58 -54 152 -88 207 -74 53 13
26 89 -80 228 -71 92 -148 124 -189 78z"/>
<path d="M8467 8240 c-14 -11 -31 -37 -38 -58 -27 -82 -3 -228 42 -252 68 -37
149 40 149 142 0 53 -38 137 -75 166 -34 27 -45 27 -78 2z"/>
<path d="M9300 8122 c-60 -21 -131 -116 -133 -178 -1 -48 24 -67 81 -61 89 10
161 89 148 162 -9 45 -63 89 -96 77z"/>
<path d="M8191 7924 c-38 -48 -24 -148 24 -174 70 -37 123 95 71 175 -23 34
-68 34 -95 -1z"/>
<path d="M10112 7900 c-30 -29 -57 -85 -71 -148 -14 -66 -14 -265 -1 -314 13
-45 52 -78 93 -78 42 0 109 71 133 141 26 73 25 223 0 297 -36 105 -103 149
-154 102z"/>
<path d="M7914 7881 c-75 -46 -96 -177 -41 -260 36 -55 78 -76 115 -59 89 42
96 262 11 322 -30 21 -47 20 -85 -3z"/>
<path d="M8830 7830 c-25 -25 -34 -61 -25 -106 7 -41 45 -84 72 -84 55 0 95
82 74 152 -18 58 -81 78 -121 38z"/>
<path d="M9751 7825 c-58 -75 -27 -185 54 -185 53 0 68 23 62 93 -9 102 -70
150 -116 92z"/>
<path d="M10701 7724 c-29 -20 -60 -88 -61 -130 0 -40 30 -68 62 -59 29 9 76
52 94 87 42 81 -23 152 -95 102z"/>
<path d="M9100 7662 c-46 -14 -56 -97 -16 -137 16 -16 31 -22 45 -18 25 6 51
51 51 85 0 45 -42 82 -80 70z"/>
<path d="M7322 7648 c-30 -30 -5 -112 49 -167 59 -58 115 -65 137 -16 28 61 5
147 -47 178 -34 20 -121 23 -139 5z"/>
<path d="M8426 7624 c-56 -55 -9 -188 54 -154 42 23 53 101 19 144 -23 29 -50
33 -73 10z"/>
<path d="M10842 7449 c-52 -26 -101 -82 -153 -174 -70 -125 -71 -176 -7 -215
97 -59 250 32 301 178 31 89 26 164 -12 203 -36 35 -69 37 -129 8z"/>
<path d="M9227 7431 c-64 -42 -97 -120 -83 -196 9 -45 60 -105 91 -105 58 0
114 87 115 177 0 61 -11 94 -41 122 -28 26 -46 26 -82 2z"/>
<path d="M8732 7362 c-47 -47 -74 -103 -80 -163 -14 -147 140 -305 206 -211
32 46 46 103 46 192 0 193 -78 276 -172 182z"/>
<path d="M7729 7321 c-75 -80 -95 -222 -46 -323 38 -77 103 -140 141 -136 58
6 96 103 96 244 0 96 -20 168 -62 218 -41 50 -78 49 -129 -3z"/>
<path d="M10410 7339 c-40 -16 -90 -70 -100 -110 -18 -66 25 -129 88 -129 35
0 84 72 97 143 7 37 -9 97 -25 97 -5 0 -14 2 -22 4 -7 3 -24 0 -38 -5z"/>
<path d="M8145 7330 c-49 -20 -85 -83 -85 -151 0 -110 97 -191 160 -134 28 26
54 117 45 163 -11 58 -35 102 -66 117 -15 8 -29 15 -31 14 -2 0 -12 -4 -23 -9z"/>
<path d="M8452 7324 c-34 -23 -45 -81 -24 -124 44 -91 123 11 81 104 -15 32
-32 38 -57 20z"/>
<path d="M9694 7321 c-63 -28 -69 -68 -30 -169 33 -83 58 -123 106 -166 74
-67 129 -40 138 69 6 69 -12 142 -48 199 -45 71 -105 95 -166 67z"/>
<path d="M9254 7046 c-28 -21 -27 -98 3 -127 41 -42 93 -2 93 71 0 33 -30 70
-58 70 -10 0 -27 -6 -38 -14z"/>
<path d="M7311 7024 c-20 -14 -22 -23 -18 -56 15 -108 146 -201 191 -136 19
27 21 103 3 138 -30 60 -125 89 -176 54z"/>
<path d="M10109 6937 c-41 -28 -79 -82 -79 -114 0 -60 61 -118 118 -111 19 2
34 16 56 51 78 127 13 247 -95 174z"/>
<path d="M9570 6939 c-72 -29 -140 -138 -140 -224 1 -88 66 -185 125 -185 31
0 90 52 118 104 32 60 32 205 0 257 -18 28 -63 63 -76 58 -1 0 -13 -5 -27 -10z"/>
<path d="M8414 6870 c-30 -12 -71 -64 -79 -100 -16 -71 44 -150 114 -150 39 0
66 20 90 67 28 55 1 152 -50 178 -31 17 -45 18 -75 5z"/>
<path d="M10437 6769 c-34 -30 -61 -147 -54 -226 7 -69 40 -140 71 -154 74
-34 175 88 183 221 7 104 -39 167 -129 177 -37 4 -49 1 -71 -18z"/>
<path d="M9182 6773 c-19 -7 -42 -58 -42 -93 0 -75 61 -136 110 -110 28 15 50
68 50 120 0 66 -58 107 -118 83z"/>
<path d="M8802 6710 c-66 -27 -49 -188 22 -206 33 -8 60 9 80 50 30 63 16 134
-31 155 -28 13 -40 13 -71 1z"/>
<path d="M7632 6625 c-39 -17 -148 -119 -168 -157 -42 -81 15 -248 85 -248 58
0 161 109 187 196 23 79 12 157 -26 196 -32 32 -34 32 -78 13z"/>
<path d="M9930 6543 c-8 -3 -34 -21 -57 -39 -97 -79 -126 -225 -67 -340 16
-33 41 -65 57 -74 24 -13 30 -13 54 0 36 20 77 82 100 150 26 80 26 259 -1
289 -18 20 -54 26 -86 14z"/>
<path d="M8023 6508 c-32 -35 -47 -95 -47 -189 -1 -79 1 -88 28 -123 45 -59
128 -101 176 -89 31 8 51 57 57 138 9 112 -27 196 -109 255 -49 36 -77 38
-105 8z"/>
<path d="M9593 6459 c-29 -11 -35 -24 -35 -72 1 -51 40 -94 71 -78 31 17 44
40 44 81 0 59 -32 87 -80 69z"/>
<path d="M8597 6419 c-22 -13 -47 -61 -47 -92 0 -27 30 -62 60 -72 69 -22 110
116 47 160 -25 17 -35 18 -60 4z"/>
<path d="M10659 6251 c-36 -37 -38 -79 -6 -109 50 -47 128 -45 166 4 29 37 26
70 -8 105 -24 24 -38 29 -76 29 -38 0 -52 -5 -76 -29z"/>
<path d="M9280 6243 c-45 -57 -3 -163 65 -163 68 0 110 106 65 163 -17 22 -29
27 -65 27 -36 0 -48 -5 -65 -27z"/>
<path d="M8851 6211 c-74 -69 -98 -206 -54 -302 27 -60 95 -129 127 -129 52 0
89 95 90 230 0 94 -21 158 -68 205 -33 33 -57 32 -95 -4z"/>
<path d="M10235 6215 c-44 -43 -28 -157 26 -186 53 -28 103 24 103 109 1 47
-3 57 -27 78 -36 31 -71 31 -102 -1z"/>
<path d="M7840 6107 c-30 -23 -50 -62 -50 -95 0 -41 46 -92 82 -92 67 0 100
120 49 174 -26 28 -57 33 -81 13z"/>
<path d="M8229 5981 c-68 -68 0 -189 73 -131 56 44 33 160 -32 160 -6 0 -25
-13 -41 -29z"/>
<path d="M9229 5981 c-47 -48 -38 -117 20 -140 39 -17 66 -2 81 44 14 42 7 78
-20 105 -27 27 -46 25 -81 -9z"/>
<path d="M9623 5950 c-50 -20 -60 -109 -17 -159 27 -33 49 -38 75 -18 25 19
39 53 39 95 0 63 -47 102 -97 82z"/>
<path d="M10107 5790 c-40 -47 -52 -102 -52 -240 0 -136 8 -164 52 -181 54
-20 107 23 139 113 17 50 20 169 5 226 -29 104 -94 142 -144 82z"/>
<path d="M8413 5694 c-63 -32 -68 -110 -10 -185 59 -77 138 -101 176 -53 28
36 27 89 -5 152 -41 82 -102 115 -161 86z"/>
<path d="M9164 5679 c-27 -30 -31 -132 -8 -205 39 -126 162 -194 268 -150 107
45 100 177 -15 280 -97 87 -204 120 -245 75z"/>
<path d="M7935 5597 c-64 -64 -54 -156 20 -191 42 -20 47 -20 78 5 54 41 60
147 12 195 -34 34 -70 31 -110 -9z"/>
<path d="M8532 5345 c-60 -50 -66 -128 -12 -166 44 -31 66 -32 97 -5 25 22 28
31 28 86 0 55 -3 64 -28 86 -35 30 -48 30 -85 -1z"/>
<path d="M8830 5328 c-37 -20 -51 -56 -47 -116 8 -116 109 -163 169 -79 32 45
33 146 2 177 -26 26 -90 35 -124 18z"/>
<path d="M9670 5210 c-27 -27 -35 -65 -21 -111 32 -107 148 -86 159 30 4 43 1
53 -21 75 -33 32 -88 35 -117 6z"/>
<path d="M8213 5181 c-76 -35 -100 -105 -64 -187 12 -27 32 -59 44 -72 84 -91
270 -157 340 -121 93 48 68 157 -66 292 -95 97 -175 124 -254 88z"/>
<path d="M9262 5124 c-55 -38 -67 -115 -26 -163 65 -78 163 0 134 108 -17 63
-63 87 -108 55z"/>
<path d="M9642 4754 c-29 -20 -52 -66 -52 -104 0 -43 47 -90 89 -90 77 0 109
123 49 188 -25 26 -55 28 -86 6z"/>
<path d="M9153 4726 c-25 -22 -28 -31 -28 -84 0 -67 21 -107 68 -130 23 -11
32 -11 61 3 67 32 90 145 40 204 -22 26 -33 31 -69 31 -32 0 -52 -7 -72 -24z"/>
<path d="M8721 4575 c-43 -49 -43 -104 -1 -146 23 -23 37 -30 61 -27 97 9 99
196 2 206 -24 2 -36 -4 -62 -33z"/>
</g>
</svg>
